<svg xmlns="http://www.w3.org/2000/svg" version="1.1" xmlns:xlink="http://www.w3.org/1999/xlink" xmlns:svgjs="http://svgjs.dev/svgjs" width="1440" height="560" preserveAspectRatio="none" viewBox="0 0 1440 560"><g mask="url(&quot;#SvgjsMask1528&quot;)" fill="none"><path d="M1039 179L1195 335" stroke-width="10" stroke="url(&quot;#SvgjsLinearGradient1529&quot;)" stroke-linecap="round" class="BottomRight"></path><path d="M478 289L747 558" stroke-width="10" stroke="url(&quot;#SvgjsLinearGradient1529&quot;)" stroke-linecap="round" class="BottomRight"></path><path d="M343 501L-57 101" stroke-width="10" stroke="url(&quot;#SvgjsLinearGradient1529&quot;)" stroke-linecap="round" class="BottomRight"></path><path d="M1054 246L1460 652" stroke-width="8" stroke="url(&quot;#SvgjsLinearGradient1530&quot;)" stroke-linecap="round" class="TopLeft"></path><path d="M358 121L203 -34" stroke-width="6" stroke="url(&quot;#SvgjsLinearGradient1530&quot;)" stroke-linecap="round" class="TopLeft"></path><path d="M1274 244L1114 84" stroke-width="6" stroke="url(&quot;#SvgjsLinearGradient1529&quot;)" stroke-linecap="round" class="BottomRight"></path><path d="M735 20L524 -191" stroke-width="8" stroke="url(&quot;#SvgjsLinearGradient1530&quot;)" stroke-linecap="round" class="TopLeft"></path><path d="M75 489L-230 184" stroke-width="10" stroke="url(&quot;#SvgjsLinearGradient1529&quot;)" stroke-linecap="round" class="BottomRight"></path><path d="M1003 263L609 -131" stroke-width="10" stroke="url(&quot;#SvgjsLinearGradient1529&quot;)" stroke-linecap="round" class="BottomRight"></path><path d="M535 96L801 362" stroke-width="10" stroke="url(&quot;#SvgjsLinearGradient1530&quot;)" stroke-linecap="round" class="TopLeft"></path><path d="M1057 161L1283 387" stroke-width="10" stroke="url(&quot;#SvgjsLinearGradient1530&quot;)" stroke-linecap="round" class="TopLeft"></path><path d="M202 522L-4 316" stroke-width="10" stroke="url(&quot;#SvgjsLinearGradient1530&quot;)" stroke-linecap="round" class="TopLeft"></path><path d="M229 138L-19 -110" stroke-width="10" stroke="url(&quot;#SvgjsLinearGradient1530&quot;)" stroke-linecap="round" class="TopLeft"></path><path d="M312 420L-76 32" stroke-width="6" stroke="url(&quot;#SvgjsLinearGradient1529&quot;)" stroke-linecap="round" class="BottomRight"></path><path d="M1340 429L1104 193" stroke-width="10" stroke="url(&quot;#SvgjsLinearGradient1530&quot;)" stroke-linecap="round" class="TopLeft"></path><path d="M1038 98L1215 275" stroke-width="10" stroke="url(&quot;#SvgjsLinearGradient1529&quot;)" stroke-linecap="round" class="BottomRight"></path><path d="M905 22L504 -379" stroke-width="10" stroke="url(&quot;#SvgjsLinearGradient1530&quot;)" stroke-linecap="round" class="TopLeft"></path><path d="M13 451L427 865" stroke-width="6" stroke="url(&quot;#SvgjsLinearGradient1529&quot;)" stroke-linecap="round" class="BottomRight"></path><path d="M145 58L-269 -356" stroke-width="8" stroke="url(&quot;#SvgjsLinearGradient1530&quot;)" stroke-linecap="round" class="TopLeft"></path><path d="M27 408L-204 177" stroke-width="6" stroke="url(&quot;#SvgjsLinearGradient1529&quot;)" stroke-linecap="round" class="BottomRight"></path><path d="M979 348L1350 719" stroke-width="6" stroke="url(&quot;#SvgjsLinearGradient1529&quot;)" stroke-linecap="round" class="BottomRight"></path><path d="M1026 120L630 -276" stroke-width="6" stroke="url(&quot;#SvgjsLinearGradient1529&quot;)" stroke-linecap="round" class="BottomRight"></path><path d="M968 181L635 -152" stroke-width="10" stroke="url(&quot;#SvgjsLinearGradient1530&quot;)" stroke-linecap="round" class="TopLeft"></path><path d="M1157 186L921 -50" stroke-width="6" stroke="url(&quot;#SvgjsLinearGradient1529&quot;)" stroke-linecap="round" class="BottomRight"></path><path d="M1217 121L1516 420" stroke-width="8" stroke="url(&quot;#SvgjsLinearGradient1530&quot;)" stroke-linecap="round" class="TopLeft"></path><path d="M316 180L62 -74" stroke-width="8" stroke="url(&quot;#SvgjsLinearGradient1530&quot;)" stroke-linecap="round" class="TopLeft"></path><path d="M624 307L390 73" stroke-width="10" stroke="url(&quot;#SvgjsLinearGradient1530&quot;)" stroke-linecap="round" class="TopLeft"></path><path d="M43 212L298 467" stroke-width="6" stroke="url(&quot;#SvgjsLinearGradient1529&quot;)" stroke-linecap="round" class="BottomRight"></path><path d="M1129 276L976 123" stroke-width="8" stroke="url(&quot;#SvgjsLinearGradient1529&quot;)" stroke-linecap="round" class="BottomRight"></path><path d="M108 191L-231 -148" stroke-width="10" stroke="url(&quot;#SvgjsLinearGradient1530&quot;)" stroke-linecap="round" class="TopLeft"></path><path d="M671 357L826 512" stroke-width="8" stroke="url(&quot;#SvgjsLinearGradient1529&quot;)" stroke-linecap="round" class="BottomRight"></path><path d="M1333 369L973 9" stroke-width="10" stroke="url(&quot;#SvgjsLinearGradient1530&quot;)" stroke-linecap="round" class="TopLeft"></path><path d="M126 349L-280 -57" stroke-width="10" stroke="url(&quot;#SvgjsLinearGradient1530&quot;)" stroke-linecap="round" class="TopLeft"></path><path d="M72 215L-184 -41" stroke-width="8" stroke="url(&quot;#SvgjsLinearGradient1529&quot;)" stroke-linecap="round" class="BottomRight"></path><path d="M312 92L66 -154" stroke-width="10" stroke="url(&quot;#SvgjsLinearGradient1529&quot;)" stroke-linecap="round" class="BottomRight"></path><path d="M645 304L410 69" stroke-width="10" stroke="url(&quot;#SvgjsLinearGradient1529&quot;)" stroke-linecap="round" class="BottomRight"></path><path d="M398 479L750 831" stroke-width="8" stroke="url(&quot;#SvgjsLinearGradient1529&quot;)" stroke-linecap="round" class="BottomRight"></path><path d="M266 280L682 696" stroke-width="6" stroke="url(&quot;#SvgjsLinearGradient1530&quot;)" stroke-linecap="round" class="TopLeft"></path><path d="M1344 422L1528 606" stroke-width="8" stroke="url(&quot;#SvgjsLinearGradient1529&quot;)" stroke-linecap="round" class="BottomRight"></path></g><defs><mask id="SvgjsMask1528"><rect width="1440" height="560" fill="#ffffff"></rect></mask><linearGradient x1="0%" y1="0%" x2="100%" y2="100%" id="SvgjsLinearGradient1529"><stop stop-color="rgba(145, 94, 255, 0)" offset="0"></stop><stop stop-color="rgba(145, 94, 255, 1)" offset="1"></stop></linearGradient><linearGradient x1="100%" y1="100%" x2="0%" y2="0%" id="SvgjsLinearGradient1530"><stop stop-color="rgba(145, 94, 255, 0)" offset="0"></stop><stop stop-color="rgba(145, 94, 255, 1)" offset="1"></stop></linearGradient></defs></svg>